<svg width="16" height="12" viewBox="0 0 16 12" fill="none" xmlns="http://www.w3.org/2000/svg">
<path d="M5.28942 0.00032795C5.23989 0.00400618 5.19115 0.0148367 5.14472 0.0324825L0.342982 1.74739C0.243118 1.7827 0.156587 1.84798 0.0952025 1.9343C0.0338175 2.02062 0.000570326 2.12379 0 2.22971V11.4902C0.000446853 11.5723 0.0205198 11.6531 0.0585432 11.7258C0.0965666 11.7985 0.151437 11.8611 0.218574 11.9083C0.285711 11.9555 0.363166 11.986 0.444474 11.9971C0.525781 12.0083 0.608582 11.9999 0.685963 11.9725L5.31622 10.3166L9.94647 11.9725C10.0574 12.0118 10.1785 12.0118 10.2894 11.9725L15.0912 10.2576C15.1911 10.2223 15.2776 10.157 15.339 10.0707C15.4004 9.98439 15.4336 9.88123 15.4342 9.77531V0.5148C15.4337 0.43273 15.4137 0.351957 15.3756 0.279225C15.3376 0.206493 15.2827 0.143912 15.2156 0.0967063C15.1485 0.0495007 15.071 0.01904 14.9897 0.0078676C14.9084 -0.00330484 14.8256 0.00513501 14.7482 0.0324825L10.118 1.68844L5.48771 0.0324825C5.42437 0.00884086 5.35699 -0.00208552 5.28942 0.00032795ZM4.80174 1.23828V9.41625L1.02894 10.7614V2.58877L4.80174 1.23828ZM5.83069 1.23828L9.60349 2.58877V10.7667L5.83069 9.41625V1.23828ZM14.4052 1.24364V9.41625L10.6324 10.7667V2.58877L14.4052 1.24364Z" fill="black"/>
</svg>
