<svg width="46" height="19" viewBox="0 0 46 19" fill="none" xmlns="http://www.w3.org/2000/svg">
<path d="M45.306 0H0.00012207V18.2441H45.306V0Z" fill="#2DC4A7"/>
<path d="M43.6085 2.1609L42.656 5.08443C41.8947 4.7282 40.8583 4.41324 39.4004 4.41324C37.8364 4.41324 36.567 4.64247 36.567 5.8223C36.567 7.90319 42.2973 7.12659 42.2973 11.5868C42.2973 15.6464 38.5114 16.6992 35.0868 16.6992C33.5648 16.6992 31.809 16.3398 30.5206 15.9391L31.4508 12.9521C32.2313 13.4575 33.7978 13.7947 35.0868 13.7947C36.3143 13.7947 38.2364 13.5629 38.2364 12.0485C38.2364 9.69135 32.5062 10.5753 32.5062 6.43317C32.5062 2.64477 35.8482 1.50876 39.0835 1.50876C40.9028 1.50876 42.6141 1.69926 43.6085 2.1609ZM32.2535 1.76021L29.1871 16.4452H25.2342L26.5455 10.1555H21.8706L20.56 16.4452H16.6071L19.6735 1.76021H23.6264L22.465 7.37805H27.1373L28.3012 1.76021H32.2535ZM18.2156 1.76021L15.0876 16.4452H10.1797L7.09357 6.28394H7.0523L4.99935 16.4452H1.27762L4.43039 1.76021H9.3548L12.3793 11.9437H12.4212L14.4932 1.76021H18.2156ZM45.3059 -6.48979e-07H0V18.2441H45.3059V-6.48979e-07Z" fill="white"/>
</svg>
