<svg width="22" height="22" viewBox="0 0 22 22" fill="none" xmlns="http://www.w3.org/2000/svg">
<g clip-path="url(#clip0_335_2)">
<path d="M0 9.15559C0 14.2051 4.10811 18.3087 9.15315 18.3087C11.4775 18.3087 13.6036 17.4349 15.2207 16.0024L21.0541 21.8358C21.1622 21.9439 21.3018 21.9979 21.4459 21.9979C21.5901 21.9979 21.7297 21.9439 21.8378 21.8358C22.0541 21.6196 22.0541 21.2727 21.8378 21.0565L16 15.2232C17.4324 13.606 18.3063 11.4844 18.3063 9.15559C18.3063 4.10604 14.1982 0.00244141 9.15315 0.00244141C4.10811 0.00244141 0 4.10604 0 9.15559ZM17.2027 9.15559C17.2027 13.5925 13.5901 17.2051 9.15315 17.2051C4.71622 17.2051 1.1036 13.5925 1.1036 9.15559C1.1036 4.71866 4.71622 1.10604 9.15315 1.10604C13.5901 1.10604 17.2027 4.71415 17.2027 9.15559Z" fill="black"/>
</g>
<defs>
<clipPath id="clip0_335_2">
<rect width="22" height="22" fill="white"/>
</clipPath>
</defs>
</svg>
