<svg width="33" height="33" viewBox="0 0 33 33" fill="none" xmlns="http://www.w3.org/2000/svg">
<path d="M16.5 0C7.37607 0 0 7.37607 0 16.5C0 25.6239 7.37607 33 16.5 33C25.6239 33 33 25.6239 33 16.5C33 7.37607 25.6239 0 16.5 0ZM11.5196 2.24724C10.6491 3.46871 9.90675 4.75767 9.28589 6.10736H5.54049C7.17362 4.37975 9.2184 3.04356 11.5196 2.24724ZM4.35951 7.51104H8.69202C7.67301 10.1362 7.11288 12.9368 7.0319 15.7982H1.42393C1.56564 12.7006 2.6319 9.84601 4.35951 7.51104ZM4.35951 25.489C2.6319 23.154 1.56564 20.2994 1.42393 17.2018H7.0319C7.11288 20.0632 7.69325 22.8638 8.71902 25.489H4.35951ZM5.54049 26.8926H9.31963C9.94724 28.2423 10.6896 29.5448 11.5466 30.7663C9.23865 29.9699 7.18037 28.627 5.54049 26.8926ZM15.7982 31.5828C15.0963 31.5491 14.4012 31.4681 13.7264 31.3466C12.6061 29.9632 11.6479 28.4718 10.8718 26.8994H15.7982V31.5828ZM15.7982 25.489H10.2307C9.14417 22.8706 8.52331 20.0699 8.43558 17.2018H15.7982V25.489ZM15.7982 15.7982H8.43558C8.52331 12.9368 9.13742 10.1294 10.2172 7.51104H15.7982V15.7982ZM15.8049 6.10736H15.7982H10.8583C11.6411 4.52147 12.5994 3.03006 13.7264 1.66012C14.4012 1.5319 15.0963 1.45767 15.8049 1.42393V6.10736ZM28.6405 7.51104C30.3681 9.84601 31.4411 12.6939 31.5761 15.7982H25.9681C25.8871 12.9368 25.3067 10.1362 24.281 7.51104H28.6405ZM27.4595 6.10736H23.6804C23.0528 4.75767 22.3104 3.45521 21.4466 2.23374C23.7613 3.03006 25.8196 4.37301 27.4595 6.10736ZM17.2018 1.42393C17.9037 1.45767 18.5988 1.53865 19.2736 1.66012C20.3939 3.04356 21.3521 4.53497 22.1282 6.10736H17.2018V1.42393ZM17.2018 7.51104H22.7693C23.8558 10.1227 24.4767 12.9301 24.5644 15.7982H17.2018V7.51104ZM17.2018 17.2018H24.5644C24.4767 20.0632 23.8626 22.8706 22.7828 25.489H17.2018V17.2018ZM17.1951 31.5761V26.8926H17.2018H22.1417C21.3589 28.4785 20.4006 29.9699 19.2736 31.3399C18.5988 31.4681 17.9037 31.5423 17.1951 31.5761ZM21.4466 30.7663C22.3037 29.5448 23.046 28.2423 23.6669 26.8926H27.4663C25.8196 28.627 23.7613 29.9699 21.4466 30.7663ZM24.2607 25.489C25.273 22.8638 25.8466 20.0632 25.9614 17.2018H31.5828C31.4411 20.2994 30.3748 23.154 28.6472 25.489H24.2607Z" fill="white"/>
</svg>
